<svg
            xmlns="http://www.w3.org/2000/svg"
            xmlns:xlink="http://www.w3.org/1999/xlink"
            preserveAspectRatio="xMidYMid meet"
            version="1.0"
            viewBox="0.0 0.0 500.0 500.0"
            zoomAndPan="magnify"
            style="fill: rgb(0, 0, 0)"
            opacity="0.4"
            original_string_length="4510"
            width="190.18283995729368px"
            height="190.18283995729368px"
          >
            <g id="__id0_s2leekjdgum">
              <path
                d="M498.17431640625,219.758728027344659C483.24371337890625,95.950683593750909,377.8338623046875,.000000000000909,250,.000000000000909S16.75628662109375,95.950683593750909,1.82568359375,219.758728027344659c-1.1956787109375,9.9149169921875-1.82568359375,20.00396728515625-1.82568359375,30.24127197265625,0,138.0711669921875,111.9288330078125,249.99993896484375,250,249.99993896484375s250-111.92877197265625,250-249.99993896484375c0-10.2373046875-.6300048828125-20.32635498046875-1.82568359375-30.24127197265625Z"
                style="fill: rgb(230, 238, 247)"
              />
            </g>
            <g>
              <g id="__id1_s2leekjdgum">
                <path
                  d="M250,439.517456054688409c-127.8338623046875,0-233.24371337890625-95.95074462890625-248.17431640625-219.75872802734375-1.1956787109375,9.9149169921875-1.82568359375,20.00396728515625-1.82568359375,30.24127197265625,0,138.0711669921875,111.9288330078125,249.99993896484375,250,249.99993896484375s250-111.92877197265625,250-249.99993896484375c0-10.2373046875-.6300048828125-20.32635498046875-1.82568359375-30.24127197265625-14.93060302734375,123.8079833984375-120.3404541015625,219.75872802734375-248.17431640625,219.75872802734375Z"
                  style="fill: rgb(148, 172, 194)"
                />
              </g>
              <g id="__id2_s2leekjdgum">
                <path
                  d="M250,439.517456054688409c127.8338623046875,0,233.24371337890625-95.95074462890625,248.17431640625-219.75872802734375C483.24371337890625,95.95068359375,377.8338623046875,0,250,0S16.75628662109375,95.95068359375,1.82568359375,219.758728027344659c14.93060302734375,123.8079833984375,120.3404541015625,219.75872802734375,248.17431640625,219.75872802734375Z"
                  style="fill: rgb(230, 238, 247)"
                />
              </g>
            </g>
            <g id="__id3_s2leekjdgum">
              <path
                d="M444.64544677734375,123.223999023438409l-14.64300537109375,45.06610107421875-7.93878173828125,24.4334716796875-88.96417236328125,36.12939453125-21.07354736328125-15.31097412109375-38.3341064453125-27.85150146484375-20.94244384765625-15.21533203125V69.940490722657159l20.94329833984375-15.21600341796875,38.33551025390625-27.8525390625,18.66082763671875-13.557983398438409C305.3741455078125,4.686157226563409,278.2349853515625,0,250,0s-55.37420654296875,4.686218261719659-80.6890869140625,13.314025878907159l18.66082763671875,13.55792236328125,38.33551025390625,27.8525390625,20.944091796875,15.216674804686591v100.533325195313409l-20.94317626953125,15.21600341796875-38.334106445311591,27.85150146484375-21.0732421875,15.31072998046875-88.964660644532159-36.1295166015625-7.93865966796875-24.43310546875-14.6429443359375-45.06610107421875-6.87890625-21.17071533203125C18.0108642578125,143.480712890625,0,194.633544921875,0,250.000000000000909c0,1.18389892578125,.02838134765625,2.3609619140625,.0447998046875,3.54095458984375l16.9742431640625-12.3323974609375,38.3355712890625-27.852294921875,21.07464599609375-15.31170654296875,88.963134765625,36.12774658203125,7.93914794921875,24.43450927734375,14.642517089844659,45.064453125,8.032409667967841,24.72100830078125-55.1849365234375,68.7171630859375-25.7618408203125-.00006103515625-47.3853759765625,.0001220703125-19.80926513671875,.00006103515625c30.947509765625,42.4501953125,74.93377685546875,74.77783203125,126.07861328125,91.09442138671875l-5.905639648436591-18.176025390625-14.642761230469659-45.066162109375-8.0330810546875-24.7227783203125,55.1844482421875-68.71661376953125h98.907470703125l55.18389892578125,68.71588134765625-8.03326416015625,24.7235107421875-14.64276123046875,45.066162109375-5.90570068359375,18.176025390625c51.14483642578125-16.31658935546875,95.131103515625-48.64422607421875,126.07867431640625-91.09442138671875l-19.80926513671875-.00006103515625-47.3853759765625-.0001220703125-25.7611083984375,.00006103515625-55.1854248046875-68.71783447265625,8.03216552734375-24.720703125,14.6424560546875-45.0640869140625,7.9390869140625-24.43414306640625,88.9625244140625-36.12860107421875,21.0753173828125,15.31219482421875,38.33563232421875,27.852294921875,16.9742431640625,12.3323974609375c.01641845703125-1.17999267578125,.0447998046875-2.3570556640625,.0447998046875-3.54095458984375,0-55.366455078125909-18.0108642578125-106.51934814453125-48.4757080078125-147.946777343750909l-6.87884521484375,21.170776367188409Z"
                style="fill: rgb(16, 146, 215)"
              />
            </g>
          </svg>